<mxfile host="app.diagrams.net" agent="Mozilla/5.0 (Windows NT 10.0; Win64; x64) AppleWebKit/537.36 (KHTML, like Gecko) Chrome/128.0.0.0 Safari/537.36 OPR/114.0.0.0" version="24.8.4">
  <diagram name="PÃ¡gina-1" id="UcQnkSeWGZl73oOWzogj">
    <mxGraphModel grid="1" page="1" gridSize="10" guides="1" tooltips="1" connect="1" arrows="1" fold="1" pageScale="1" pageWidth="827" pageHeight="1169" math="0" shadow="0">
      <root>
        <mxCell id="0" />
        <mxCell id="1" parent="0" />
        <mxCell id="v_NeFwBvMOkXejpZJr8L-4" value="Alt&lt;div&gt;&lt;br&gt;&lt;/div&gt;" style="shape=umlFrame;whiteSpace=wrap;html=1;pointerEvents=0;" vertex="1" parent="1">
          <mxGeometry x="320" y="585" width="320" height="125" as="geometry" />
        </mxCell>
        <mxCell id="uo3-oJz6HWGScUrpZiiw-1" value="" style="shape=umlActor;verticalLabelPosition=bottom;verticalAlign=top;html=1;outlineConnect=0;" vertex="1" parent="1">
          <mxGeometry x="210" y="130" width="30" height="60" as="geometry" />
        </mxCell>
        <mxCell id="uo3-oJz6HWGScUrpZiiw-2" value="" style="endArrow=none;dashed=1;html=1;dashPattern=1 3;strokeWidth=2;rounded=0;" edge="1" parent="1" source="uo3-oJz6HWGScUrpZiiw-8" target="uo3-oJz6HWGScUrpZiiw-1">
          <mxGeometry width="50" height="50" relative="1" as="geometry">
            <mxPoint x="225" y="480" as="sourcePoint" />
            <mxPoint x="210" y="230" as="targetPoint" />
          </mxGeometry>
        </mxCell>
        <mxCell id="uo3-oJz6HWGScUrpZiiw-3" style="edgeStyle=orthogonalEdgeStyle;rounded=0;orthogonalLoop=1;jettySize=auto;html=1;exitX=0.5;exitY=1;exitDx=0;exitDy=0;dashed=1;endArrow=none;endFill=0;entryX=0;entryY=0.5;entryDx=0;entryDy=0;" edge="1" parent="1" source="uo3-oJz6HWGScUrpZiiw-4" target="uo3-oJz6HWGScUrpZiiw-38">
          <mxGeometry relative="1" as="geometry">
            <mxPoint x="405" y="560" as="targetPoint" />
          </mxGeometry>
        </mxCell>
        <mxCell id="uo3-oJz6HWGScUrpZiiw-4" value="Sistema" style="rounded=0;whiteSpace=wrap;html=1;" vertex="1" parent="1">
          <mxGeometry x="350" y="135" width="110" height="50" as="geometry" />
        </mxCell>
        <mxCell id="uo3-oJz6HWGScUrpZiiw-5" style="edgeStyle=orthogonalEdgeStyle;rounded=0;orthogonalLoop=1;jettySize=auto;html=1;exitX=0.5;exitY=1;exitDx=0;exitDy=0;endArrow=none;endFill=0;dashed=1;" edge="1" parent="1" source="uo3-oJz6HWGScUrpZiiw-53">
          <mxGeometry relative="1" as="geometry">
            <mxPoint x="585" y="660" as="targetPoint" />
          </mxGeometry>
        </mxCell>
        <mxCell id="uo3-oJz6HWGScUrpZiiw-6" value="DB" style="rounded=0;whiteSpace=wrap;html=1;" vertex="1" parent="1">
          <mxGeometry x="530" y="135" width="110" height="50" as="geometry" />
        </mxCell>
        <mxCell id="uo3-oJz6HWGScUrpZiiw-7" value="" style="endArrow=none;dashed=1;html=1;dashPattern=1 3;strokeWidth=2;rounded=0;" edge="1" parent="1" source="uo3-oJz6HWGScUrpZiiw-21" target="uo3-oJz6HWGScUrpZiiw-8">
          <mxGeometry width="50" height="50" relative="1" as="geometry">
            <mxPoint x="225" y="560" as="sourcePoint" />
            <mxPoint x="225" y="220" as="targetPoint" />
          </mxGeometry>
        </mxCell>
        <mxCell id="uo3-oJz6HWGScUrpZiiw-8" value="" style="rounded=0;whiteSpace=wrap;html=1;direction=south;" vertex="1" parent="1">
          <mxGeometry x="220" y="210" width="10" height="170" as="geometry" />
        </mxCell>
        <mxCell id="uo3-oJz6HWGScUrpZiiw-9" value="" style="endArrow=open;html=1;rounded=0;exitX=0.099;exitY=-0.04;exitDx=0;exitDy=0;exitPerimeter=0;endFill=0;" edge="1" parent="1">
          <mxGeometry width="50" height="50" relative="1" as="geometry">
            <mxPoint x="229.99999999999997" y="250.00000000000003" as="sourcePoint" />
            <mxPoint x="399.6" y="250.15" as="targetPoint" />
          </mxGeometry>
        </mxCell>
        <mxCell id="uo3-oJz6HWGScUrpZiiw-10" value="Solicita login" style="edgeLabel;html=1;align=center;verticalAlign=middle;resizable=0;points=[];" connectable="0" vertex="1" parent="uo3-oJz6HWGScUrpZiiw-9">
          <mxGeometry x="-0.8042" relative="1" as="geometry">
            <mxPoint x="43" as="offset" />
          </mxGeometry>
        </mxCell>
        <mxCell id="uo3-oJz6HWGScUrpZiiw-11" style="edgeStyle=orthogonalEdgeStyle;rounded=0;orthogonalLoop=1;jettySize=auto;html=1;entryX=0.5;entryY=0;entryDx=0;entryDy=0;dashed=1;endArrow=open;endFill=0;" edge="1" parent="1">
          <mxGeometry relative="1" as="geometry">
            <mxPoint x="400" y="370" as="sourcePoint" />
            <mxPoint x="230" y="370" as="targetPoint" />
          </mxGeometry>
        </mxCell>
        <mxCell id="uo3-oJz6HWGScUrpZiiw-12" value="Recebe resposta" style="edgeLabel;html=1;align=center;verticalAlign=middle;resizable=0;points=[];" connectable="0" vertex="1" parent="uo3-oJz6HWGScUrpZiiw-11">
          <mxGeometry x="0.3506" y="-1" relative="1" as="geometry">
            <mxPoint x="25" as="offset" />
          </mxGeometry>
        </mxCell>
        <mxCell id="uo3-oJz6HWGScUrpZiiw-13" value="" style="endArrow=open;html=1;rounded=0;exitX=0.126;exitY=-0.071;exitDx=0;exitDy=0;exitPerimeter=0;endFill=0;" edge="1" parent="1">
          <mxGeometry width="50" height="50" relative="1" as="geometry">
            <mxPoint x="410" y="264.5" as="sourcePoint" />
            <mxPoint x="579" y="264.5" as="targetPoint" />
          </mxGeometry>
        </mxCell>
        <mxCell id="uo3-oJz6HWGScUrpZiiw-14" value="Valida dados" style="edgeLabel;html=1;align=center;verticalAlign=middle;resizable=0;points=[];" connectable="0" vertex="1" parent="uo3-oJz6HWGScUrpZiiw-13">
          <mxGeometry x="-0.8042" relative="1" as="geometry">
            <mxPoint x="53" as="offset" />
          </mxGeometry>
        </mxCell>
        <mxCell id="uo3-oJz6HWGScUrpZiiw-15" style="edgeStyle=orthogonalEdgeStyle;rounded=0;orthogonalLoop=1;jettySize=auto;html=1;endArrow=open;endFill=0;dashed=1;entryX=0.421;entryY=0.1;entryDx=0;entryDy=0;entryPerimeter=0;" edge="1" parent="1">
          <mxGeometry relative="1" as="geometry">
            <mxPoint x="580" y="325.5" as="sourcePoint" />
            <mxPoint x="409" y="325.5" as="targetPoint" />
            <Array as="points">
              <mxPoint x="495" y="324.5" />
            </Array>
          </mxGeometry>
        </mxCell>
        <mxCell id="uo3-oJz6HWGScUrpZiiw-16" value="Dados NOK" style="edgeLabel;html=1;align=center;verticalAlign=middle;resizable=0;points=[];" connectable="0" vertex="1" parent="uo3-oJz6HWGScUrpZiiw-15">
          <mxGeometry x="-0.1602" y="-2" relative="1" as="geometry">
            <mxPoint x="-18" as="offset" />
          </mxGeometry>
        </mxCell>
        <mxCell id="uo3-oJz6HWGScUrpZiiw-17" style="edgeStyle=orthogonalEdgeStyle;rounded=0;orthogonalLoop=1;jettySize=auto;html=1;endArrow=open;endFill=0;dashed=1;entryX=0.421;entryY=0.1;entryDx=0;entryDy=0;entryPerimeter=0;" edge="1" parent="1">
          <mxGeometry relative="1" as="geometry">
            <mxPoint x="579" y="295" as="sourcePoint" />
            <mxPoint x="408" y="295" as="targetPoint" />
            <Array as="points">
              <mxPoint x="494" y="294" />
            </Array>
          </mxGeometry>
        </mxCell>
        <mxCell id="uo3-oJz6HWGScUrpZiiw-18" value="Dados OK" style="edgeLabel;html=1;align=center;verticalAlign=middle;resizable=0;points=[];" connectable="0" vertex="1" parent="uo3-oJz6HWGScUrpZiiw-17">
          <mxGeometry x="-0.1602" y="-2" relative="1" as="geometry">
            <mxPoint x="-18" as="offset" />
          </mxGeometry>
        </mxCell>
        <mxCell id="uo3-oJz6HWGScUrpZiiw-19" value="" style="endArrow=none;dashed=1;html=1;dashPattern=1 3;strokeWidth=2;rounded=0;" edge="1" parent="1" target="uo3-oJz6HWGScUrpZiiw-21">
          <mxGeometry width="50" height="50" relative="1" as="geometry">
            <mxPoint x="225" y="560" as="sourcePoint" />
            <mxPoint x="225" y="390" as="targetPoint" />
          </mxGeometry>
        </mxCell>
        <mxCell id="uo3-oJz6HWGScUrpZiiw-21" value="" style="rounded=0;whiteSpace=wrap;html=1;direction=south;" vertex="1" parent="1">
          <mxGeometry x="220" y="430" width="10" height="90" as="geometry" />
        </mxCell>
        <mxCell id="uo3-oJz6HWGScUrpZiiw-22" value="" style="rounded=0;whiteSpace=wrap;html=1;direction=south;" vertex="1" parent="1">
          <mxGeometry x="400" y="430" width="10" height="90" as="geometry" />
        </mxCell>
        <mxCell id="uo3-oJz6HWGScUrpZiiw-23" value="" style="endArrow=open;html=1;rounded=0;exitX=0.099;exitY=-0.04;exitDx=0;exitDy=0;exitPerimeter=0;endFill=0;" edge="1" parent="1">
          <mxGeometry width="50" height="50" relative="1" as="geometry">
            <mxPoint x="410" y="450" as="sourcePoint" />
            <mxPoint x="580" y="450" as="targetPoint" />
          </mxGeometry>
        </mxCell>
        <mxCell id="uo3-oJz6HWGScUrpZiiw-24" value="Armazenar Chamado" style="edgeLabel;html=1;align=center;verticalAlign=middle;resizable=0;points=[];" connectable="0" vertex="1" parent="uo3-oJz6HWGScUrpZiiw-23">
          <mxGeometry x="-0.8042" relative="1" as="geometry">
            <mxPoint x="63" as="offset" />
          </mxGeometry>
        </mxCell>
        <mxCell id="uo3-oJz6HWGScUrpZiiw-25" style="edgeStyle=orthogonalEdgeStyle;rounded=0;orthogonalLoop=1;jettySize=auto;html=1;entryX=0.5;entryY=0;entryDx=0;entryDy=0;dashed=1;endArrow=open;endFill=0;" edge="1" parent="1">
          <mxGeometry relative="1" as="geometry">
            <mxPoint x="580" y="480" as="sourcePoint" />
            <mxPoint x="410" y="480" as="targetPoint" />
          </mxGeometry>
        </mxCell>
        <mxCell id="uo3-oJz6HWGScUrpZiiw-26" value="Retorna ID" style="edgeLabel;html=1;align=center;verticalAlign=middle;resizable=0;points=[];" connectable="0" vertex="1" parent="uo3-oJz6HWGScUrpZiiw-25">
          <mxGeometry x="0.3506" y="-1" relative="1" as="geometry">
            <mxPoint x="25" as="offset" />
          </mxGeometry>
        </mxCell>
        <mxCell id="uo3-oJz6HWGScUrpZiiw-27" style="edgeStyle=orthogonalEdgeStyle;rounded=0;orthogonalLoop=1;jettySize=auto;html=1;entryX=0.5;entryY=0;entryDx=0;entryDy=0;dashed=1;endArrow=open;endFill=0;" edge="1" parent="1">
          <mxGeometry relative="1" as="geometry">
            <mxPoint x="400" y="510" as="sourcePoint" />
            <mxPoint x="230" y="510" as="targetPoint" />
          </mxGeometry>
        </mxCell>
        <mxCell id="uo3-oJz6HWGScUrpZiiw-28" value="Retorna ID" style="edgeLabel;html=1;align=center;verticalAlign=middle;resizable=0;points=[];" connectable="0" vertex="1" parent="uo3-oJz6HWGScUrpZiiw-27">
          <mxGeometry x="0.3506" y="-1" relative="1" as="geometry">
            <mxPoint x="25" as="offset" />
          </mxGeometry>
        </mxCell>
        <mxCell id="uo3-oJz6HWGScUrpZiiw-31" value="" style="edgeStyle=orthogonalEdgeStyle;rounded=0;orthogonalLoop=1;jettySize=auto;html=1;exitX=1;exitY=0.5;exitDx=0;exitDy=0;endArrow=none;endFill=0;dashed=1;" edge="1" parent="1" source="uo3-oJz6HWGScUrpZiiw-21" target="uo3-oJz6HWGScUrpZiiw-32">
          <mxGeometry relative="1" as="geometry">
            <mxPoint x="225" y="690" as="targetPoint" />
            <mxPoint x="225" y="500" as="sourcePoint" />
          </mxGeometry>
        </mxCell>
        <mxCell id="uo3-oJz6HWGScUrpZiiw-32" value="" style="rounded=0;whiteSpace=wrap;html=1;direction=south;" vertex="1" parent="1">
          <mxGeometry x="220" y="620" width="10" height="120" as="geometry" />
        </mxCell>
        <mxCell id="uo3-oJz6HWGScUrpZiiw-33" value="" style="edgeStyle=orthogonalEdgeStyle;rounded=0;orthogonalLoop=1;jettySize=auto;html=1;exitX=1;exitY=0.5;exitDx=0;exitDy=0;endArrow=none;endFill=0;dashed=1;" edge="1" parent="1" target="uo3-oJz6HWGScUrpZiiw-38">
          <mxGeometry relative="1" as="geometry">
            <mxPoint x="404.71000000000004" y="790" as="targetPoint" />
            <mxPoint x="404.71000000000004" y="660" as="sourcePoint" />
          </mxGeometry>
        </mxCell>
        <mxCell id="uo3-oJz6HWGScUrpZiiw-34" style="edgeStyle=orthogonalEdgeStyle;rounded=0;orthogonalLoop=1;jettySize=auto;html=1;exitX=0.25;exitY=0;exitDx=0;exitDy=0;entryX=0.25;entryY=1;entryDx=0;entryDy=0;endArrow=open;endFill=0;" edge="1" parent="1" source="uo3-oJz6HWGScUrpZiiw-38" target="uo3-oJz6HWGScUrpZiiw-53">
          <mxGeometry relative="1" as="geometry" />
        </mxCell>
        <mxCell id="uo3-oJz6HWGScUrpZiiw-35" value="Procura ID no BD" style="edgeLabel;html=1;align=center;verticalAlign=middle;resizable=0;points=[];" connectable="0" vertex="1" parent="uo3-oJz6HWGScUrpZiiw-34">
          <mxGeometry x="-0.5882" y="1" relative="1" as="geometry">
            <mxPoint x="45" y="1" as="offset" />
          </mxGeometry>
        </mxCell>
        <mxCell id="uo3-oJz6HWGScUrpZiiw-38" value="" style="rounded=0;whiteSpace=wrap;html=1;direction=south;" vertex="1" parent="1">
          <mxGeometry x="400" y="620" width="10" height="120" as="geometry" />
        </mxCell>
        <mxCell id="uo3-oJz6HWGScUrpZiiw-39" value="" style="edgeStyle=orthogonalEdgeStyle;rounded=0;orthogonalLoop=1;jettySize=auto;html=1;exitX=0.5;exitY=1;exitDx=0;exitDy=0;endArrow=none;endFill=0;dashed=1;" edge="1" parent="1" source="uo3-oJz6HWGScUrpZiiw-6" target="uo3-oJz6HWGScUrpZiiw-53">
          <mxGeometry relative="1" as="geometry">
            <mxPoint x="585" y="560" as="targetPoint" />
            <mxPoint x="585" y="185" as="sourcePoint" />
          </mxGeometry>
        </mxCell>
        <mxCell id="uo3-oJz6HWGScUrpZiiw-40" value="" style="rounded=0;whiteSpace=wrap;html=1;direction=south;" vertex="1" parent="1">
          <mxGeometry x="580" y="430" width="10" height="70" as="geometry" />
        </mxCell>
        <mxCell id="uo3-oJz6HWGScUrpZiiw-41" style="edgeStyle=orthogonalEdgeStyle;rounded=0;orthogonalLoop=1;jettySize=auto;html=1;entryX=0.5;entryY=0;entryDx=0;entryDy=0;dashed=1;endArrow=open;endFill=0;" edge="1" parent="1">
          <mxGeometry relative="1" as="geometry">
            <mxPoint x="580" y="664.5" as="sourcePoint" />
            <mxPoint x="410" y="664.5" as="targetPoint" />
          </mxGeometry>
        </mxCell>
        <mxCell id="uo3-oJz6HWGScUrpZiiw-42" value="Dados OK" style="edgeLabel;html=1;align=center;verticalAlign=middle;resizable=0;points=[];" connectable="0" vertex="1" parent="uo3-oJz6HWGScUrpZiiw-41">
          <mxGeometry x="0.3506" y="-1" relative="1" as="geometry">
            <mxPoint x="25" as="offset" />
          </mxGeometry>
        </mxCell>
        <mxCell id="uo3-oJz6HWGScUrpZiiw-43" value="" style="edgeStyle=orthogonalEdgeStyle;rounded=0;orthogonalLoop=1;jettySize=auto;html=1;endArrow=none;endFill=0;dashed=1;exitX=1;exitY=0.5;exitDx=0;exitDy=0;" edge="1" parent="1" source="uo3-oJz6HWGScUrpZiiw-32">
          <mxGeometry relative="1" as="geometry">
            <mxPoint x="225" y="780" as="targetPoint" />
            <mxPoint x="270" y="770" as="sourcePoint" />
          </mxGeometry>
        </mxCell>
        <mxCell id="uo3-oJz6HWGScUrpZiiw-45" value="" style="edgeStyle=orthogonalEdgeStyle;rounded=0;orthogonalLoop=1;jettySize=auto;html=1;endArrow=none;endFill=0;dashed=1;exitX=1;exitY=0.5;exitDx=0;exitDy=0;" edge="1" parent="1" source="uo3-oJz6HWGScUrpZiiw-38">
          <mxGeometry relative="1" as="geometry">
            <mxPoint x="405" y="780" as="targetPoint" />
            <mxPoint x="405" y="730" as="sourcePoint" />
          </mxGeometry>
        </mxCell>
        <mxCell id="uo3-oJz6HWGScUrpZiiw-49" value="" style="edgeStyle=orthogonalEdgeStyle;rounded=0;orthogonalLoop=1;jettySize=auto;html=1;exitX=1;exitY=0.5;exitDx=0;exitDy=0;endArrow=none;endFill=0;dashed=1;" edge="1" parent="1">
          <mxGeometry relative="1" as="geometry">
            <mxPoint x="585.0588235294117" y="780" as="targetPoint" />
            <mxPoint x="584.71" y="660" as="sourcePoint" />
          </mxGeometry>
        </mxCell>
        <mxCell id="uo3-oJz6HWGScUrpZiiw-53" value="" style="rounded=0;whiteSpace=wrap;html=1;direction=south;" vertex="1" parent="1">
          <mxGeometry x="580" y="620" width="10" height="90" as="geometry" />
        </mxCell>
        <mxCell id="uo3-oJz6HWGScUrpZiiw-75" value="" style="endArrow=none;dashed=1;html=1;rounded=0;exitX=0.004;exitY=0.69;exitDx=0;exitDy=0;exitPerimeter=0;entryX=0.997;entryY=0.698;entryDx=0;entryDy=0;entryPerimeter=0;" edge="1" parent="1" source="uo3-oJz6HWGScUrpZiiw-77" target="uo3-oJz6HWGScUrpZiiw-77">
          <mxGeometry width="50" height="50" relative="1" as="geometry">
            <mxPoint x="480" y="380" as="sourcePoint" />
            <mxPoint x="530" y="330" as="targetPoint" />
          </mxGeometry>
        </mxCell>
        <mxCell id="uo3-oJz6HWGScUrpZiiw-76" value="" style="rounded=0;whiteSpace=wrap;html=1;direction=south;" vertex="1" parent="1">
          <mxGeometry x="580" y="220" width="10" height="130" as="geometry" />
        </mxCell>
        <mxCell id="uo3-oJz6HWGScUrpZiiw-77" value="Alt&lt;div&gt;&lt;br&gt;&lt;/div&gt;" style="shape=umlFrame;whiteSpace=wrap;html=1;pointerEvents=0;" vertex="1" parent="1">
          <mxGeometry x="330" y="210" width="320" height="150" as="geometry" />
        </mxCell>
        <mxCell id="uo3-oJz6HWGScUrpZiiw-78" value="" style="rounded=0;whiteSpace=wrap;html=1;direction=south;" vertex="1" parent="1">
          <mxGeometry x="400" y="220" width="10" height="160" as="geometry" />
        </mxCell>
        <mxCell id="uo3-oJz6HWGScUrpZiiw-79" value="" style="endArrow=open;html=1;rounded=0;exitX=0.099;exitY=-0.04;exitDx=0;exitDy=0;exitPerimeter=0;endFill=0;entryX=0.111;entryY=1.3;entryDx=0;entryDy=0;entryPerimeter=0;" edge="1" parent="1" target="uo3-oJz6HWGScUrpZiiw-38">
          <mxGeometry width="50" height="50" relative="1" as="geometry">
            <mxPoint x="229.99999999999997" y="630" as="sourcePoint" />
            <mxPoint x="399.6" y="630.15" as="targetPoint" />
          </mxGeometry>
        </mxCell>
        <mxCell id="uo3-oJz6HWGScUrpZiiw-80" value="Vizualizar status/resposta&amp;nbsp;&lt;div&gt;do chamado via ID&lt;/div&gt;" style="edgeLabel;html=1;align=center;verticalAlign=middle;resizable=0;points=[];" connectable="0" vertex="1" parent="uo3-oJz6HWGScUrpZiiw-79">
          <mxGeometry x="-0.8042" relative="1" as="geometry">
            <mxPoint x="63" as="offset" />
          </mxGeometry>
        </mxCell>
        <mxCell id="uo3-oJz6HWGScUrpZiiw-81" style="edgeStyle=orthogonalEdgeStyle;rounded=0;orthogonalLoop=1;jettySize=auto;html=1;entryX=0.5;entryY=0;entryDx=0;entryDy=0;dashed=1;endArrow=open;endFill=0;" edge="1" parent="1">
          <mxGeometry relative="1" as="geometry">
            <mxPoint x="400" y="730" as="sourcePoint" />
            <mxPoint x="230" y="730" as="targetPoint" />
          </mxGeometry>
        </mxCell>
        <mxCell id="uo3-oJz6HWGScUrpZiiw-82" value="Chamado atualizado" style="edgeLabel;html=1;align=center;verticalAlign=middle;resizable=0;points=[];" connectable="0" vertex="1" parent="uo3-oJz6HWGScUrpZiiw-81">
          <mxGeometry x="0.3506" y="-1" relative="1" as="geometry">
            <mxPoint x="25" as="offset" />
          </mxGeometry>
        </mxCell>
        <mxCell id="v_NeFwBvMOkXejpZJr8L-1" value="" style="endArrow=open;html=1;rounded=0;exitX=0.099;exitY=-0.04;exitDx=0;exitDy=0;exitPerimeter=0;endFill=0;" edge="1" parent="1">
          <mxGeometry width="50" height="50" relative="1" as="geometry">
            <mxPoint x="230" y="430" as="sourcePoint" />
            <mxPoint x="400" y="430" as="targetPoint" />
          </mxGeometry>
        </mxCell>
        <mxCell id="v_NeFwBvMOkXejpZJr8L-2" value="Criar Chamados" style="edgeLabel;html=1;align=center;verticalAlign=middle;resizable=0;points=[];" connectable="0" vertex="1" parent="v_NeFwBvMOkXejpZJr8L-1">
          <mxGeometry x="-0.8042" relative="1" as="geometry">
            <mxPoint x="53" as="offset" />
          </mxGeometry>
        </mxCell>
        <mxCell id="v_NeFwBvMOkXejpZJr8L-5" style="edgeStyle=orthogonalEdgeStyle;rounded=0;orthogonalLoop=1;jettySize=auto;html=1;entryX=0.5;entryY=0;entryDx=0;entryDy=0;dashed=1;endArrow=open;endFill=0;" edge="1" parent="1">
          <mxGeometry relative="1" as="geometry">
            <mxPoint x="580" y="690" as="sourcePoint" />
            <mxPoint x="410" y="690" as="targetPoint" />
          </mxGeometry>
        </mxCell>
        <mxCell id="v_NeFwBvMOkXejpZJr8L-6" value="Dados NOK" style="edgeLabel;html=1;align=center;verticalAlign=middle;resizable=0;points=[];" connectable="0" vertex="1" parent="v_NeFwBvMOkXejpZJr8L-5">
          <mxGeometry x="0.3506" y="-1" relative="1" as="geometry">
            <mxPoint x="25" as="offset" />
          </mxGeometry>
        </mxCell>
        <mxCell id="v_NeFwBvMOkXejpZJr8L-7" value="" style="endArrow=none;dashed=1;html=1;rounded=0;exitX=0.004;exitY=0.69;exitDx=0;exitDy=0;exitPerimeter=0;entryX=0.997;entryY=0.698;entryDx=0;entryDy=0;entryPerimeter=0;" edge="1" parent="1">
          <mxGeometry width="50" height="50" relative="1" as="geometry">
            <mxPoint x="321" y="680" as="sourcePoint" />
            <mxPoint x="639" y="681" as="targetPoint" />
          </mxGeometry>
        </mxCell>
        <mxCell id="v_NeFwBvMOkXejpZJr8L-9" value="" style="shape=umlActor;verticalLabelPosition=bottom;verticalAlign=top;html=1;outlineConnect=0;" vertex="1" parent="1">
          <mxGeometry x="760" y="135" width="30" height="60" as="geometry" />
        </mxCell>
        <mxCell id="v_NeFwBvMOkXejpZJr8L-10" value="" style="endArrow=none;dashed=1;html=1;dashPattern=1 3;strokeWidth=2;rounded=0;" edge="1" parent="1" source="v_NeFwBvMOkXejpZJr8L-16" target="v_NeFwBvMOkXejpZJr8L-9">
          <mxGeometry width="50" height="50" relative="1" as="geometry">
            <mxPoint x="775" y="485" as="sourcePoint" />
            <mxPoint x="760" y="235" as="targetPoint" />
          </mxGeometry>
        </mxCell>
        <mxCell id="v_NeFwBvMOkXejpZJr8L-11" style="edgeStyle=orthogonalEdgeStyle;rounded=0;orthogonalLoop=1;jettySize=auto;html=1;exitX=0.5;exitY=1;exitDx=0;exitDy=0;dashed=1;endArrow=none;endFill=0;entryX=0;entryY=0.5;entryDx=0;entryDy=0;" edge="1" parent="1" source="v_NeFwBvMOkXejpZJr8L-12" target="v_NeFwBvMOkXejpZJr8L-44">
          <mxGeometry relative="1" as="geometry">
            <mxPoint x="955" y="565" as="targetPoint" />
          </mxGeometry>
        </mxCell>
        <mxCell id="v_NeFwBvMOkXejpZJr8L-12" value="Sistema" style="rounded=0;whiteSpace=wrap;html=1;" vertex="1" parent="1">
          <mxGeometry x="900" y="140" width="110" height="50" as="geometry" />
        </mxCell>
        <mxCell id="v_NeFwBvMOkXejpZJr8L-13" style="edgeStyle=orthogonalEdgeStyle;rounded=0;orthogonalLoop=1;jettySize=auto;html=1;exitX=0.5;exitY=1;exitDx=0;exitDy=0;endArrow=none;endFill=0;dashed=1;" edge="1" parent="1" source="v_NeFwBvMOkXejpZJr8L-55">
          <mxGeometry relative="1" as="geometry">
            <mxPoint x="1135" y="665" as="targetPoint" />
          </mxGeometry>
        </mxCell>
        <mxCell id="v_NeFwBvMOkXejpZJr8L-14" value="DB" style="rounded=0;whiteSpace=wrap;html=1;" vertex="1" parent="1">
          <mxGeometry x="1080" y="140" width="110" height="50" as="geometry" />
        </mxCell>
        <mxCell id="v_NeFwBvMOkXejpZJr8L-15" value="" style="endArrow=none;dashed=1;html=1;dashPattern=1 3;strokeWidth=2;rounded=0;exitX=0;exitY=0.5;exitDx=0;exitDy=0;" edge="1" parent="1" source="v_NeFwBvMOkXejpZJr8L-93" target="v_NeFwBvMOkXejpZJr8L-16">
          <mxGeometry width="50" height="50" relative="1" as="geometry">
            <mxPoint x="775" y="435" as="sourcePoint" />
            <mxPoint x="775" y="225" as="targetPoint" />
          </mxGeometry>
        </mxCell>
        <mxCell id="v_NeFwBvMOkXejpZJr8L-16" value="" style="rounded=0;whiteSpace=wrap;html=1;direction=south;" vertex="1" parent="1">
          <mxGeometry x="770" y="215" width="10" height="170" as="geometry" />
        </mxCell>
        <mxCell id="v_NeFwBvMOkXejpZJr8L-17" value="" style="endArrow=open;html=1;rounded=0;exitX=0.099;exitY=-0.04;exitDx=0;exitDy=0;exitPerimeter=0;endFill=0;" edge="1" parent="1">
          <mxGeometry width="50" height="50" relative="1" as="geometry">
            <mxPoint x="780" y="255" as="sourcePoint" />
            <mxPoint x="949.6" y="255.14999999999998" as="targetPoint" />
          </mxGeometry>
        </mxCell>
        <mxCell id="v_NeFwBvMOkXejpZJr8L-18" value="Solicita login" style="edgeLabel;html=1;align=center;verticalAlign=middle;resizable=0;points=[];" connectable="0" vertex="1" parent="v_NeFwBvMOkXejpZJr8L-17">
          <mxGeometry x="-0.8042" relative="1" as="geometry">
            <mxPoint x="43" as="offset" />
          </mxGeometry>
        </mxCell>
        <mxCell id="v_NeFwBvMOkXejpZJr8L-19" style="edgeStyle=orthogonalEdgeStyle;rounded=0;orthogonalLoop=1;jettySize=auto;html=1;entryX=0.5;entryY=0;entryDx=0;entryDy=0;dashed=1;endArrow=open;endFill=0;" edge="1" parent="1">
          <mxGeometry relative="1" as="geometry">
            <mxPoint x="950" y="375" as="sourcePoint" />
            <mxPoint x="780" y="375" as="targetPoint" />
          </mxGeometry>
        </mxCell>
        <mxCell id="v_NeFwBvMOkXejpZJr8L-20" value="Recebe resposta" style="edgeLabel;html=1;align=center;verticalAlign=middle;resizable=0;points=[];" connectable="0" vertex="1" parent="v_NeFwBvMOkXejpZJr8L-19">
          <mxGeometry x="0.3506" y="-1" relative="1" as="geometry">
            <mxPoint x="25" as="offset" />
          </mxGeometry>
        </mxCell>
        <mxCell id="v_NeFwBvMOkXejpZJr8L-21" value="" style="endArrow=open;html=1;rounded=0;exitX=0.126;exitY=-0.071;exitDx=0;exitDy=0;exitPerimeter=0;endFill=0;" edge="1" parent="1">
          <mxGeometry width="50" height="50" relative="1" as="geometry">
            <mxPoint x="960" y="269.5" as="sourcePoint" />
            <mxPoint x="1129" y="269.5" as="targetPoint" />
          </mxGeometry>
        </mxCell>
        <mxCell id="v_NeFwBvMOkXejpZJr8L-22" value="Valida dados" style="edgeLabel;html=1;align=center;verticalAlign=middle;resizable=0;points=[];" connectable="0" vertex="1" parent="v_NeFwBvMOkXejpZJr8L-21">
          <mxGeometry x="-0.8042" relative="1" as="geometry">
            <mxPoint x="53" as="offset" />
          </mxGeometry>
        </mxCell>
        <mxCell id="v_NeFwBvMOkXejpZJr8L-23" style="edgeStyle=orthogonalEdgeStyle;rounded=0;orthogonalLoop=1;jettySize=auto;html=1;endArrow=open;endFill=0;dashed=1;entryX=0.421;entryY=0.1;entryDx=0;entryDy=0;entryPerimeter=0;" edge="1" parent="1">
          <mxGeometry relative="1" as="geometry">
            <mxPoint x="1130" y="330.5" as="sourcePoint" />
            <mxPoint x="959" y="330.5" as="targetPoint" />
            <Array as="points">
              <mxPoint x="1045" y="329.5" />
            </Array>
          </mxGeometry>
        </mxCell>
        <mxCell id="v_NeFwBvMOkXejpZJr8L-24" value="Dados NOK" style="edgeLabel;html=1;align=center;verticalAlign=middle;resizable=0;points=[];" connectable="0" vertex="1" parent="v_NeFwBvMOkXejpZJr8L-23">
          <mxGeometry x="-0.1602" y="-2" relative="1" as="geometry">
            <mxPoint x="-18" as="offset" />
          </mxGeometry>
        </mxCell>
        <mxCell id="v_NeFwBvMOkXejpZJr8L-25" style="edgeStyle=orthogonalEdgeStyle;rounded=0;orthogonalLoop=1;jettySize=auto;html=1;endArrow=open;endFill=0;dashed=1;entryX=0.421;entryY=0.1;entryDx=0;entryDy=0;entryPerimeter=0;" edge="1" parent="1">
          <mxGeometry relative="1" as="geometry">
            <mxPoint x="1129" y="300" as="sourcePoint" />
            <mxPoint x="958" y="300" as="targetPoint" />
            <Array as="points">
              <mxPoint x="1044" y="299" />
            </Array>
          </mxGeometry>
        </mxCell>
        <mxCell id="v_NeFwBvMOkXejpZJr8L-26" value="Dados OK" style="edgeLabel;html=1;align=center;verticalAlign=middle;resizable=0;points=[];" connectable="0" vertex="1" parent="v_NeFwBvMOkXejpZJr8L-25">
          <mxGeometry x="-0.1602" y="-2" relative="1" as="geometry">
            <mxPoint x="-18" as="offset" />
          </mxGeometry>
        </mxCell>
        <mxCell id="v_NeFwBvMOkXejpZJr8L-27" value="" style="endArrow=none;dashed=1;html=1;dashPattern=1 3;strokeWidth=2;rounded=0;" edge="1" parent="1">
          <mxGeometry width="50" height="50" relative="1" as="geometry">
            <mxPoint x="775" y="565" as="sourcePoint" />
            <mxPoint x="775" y="525" as="targetPoint" />
          </mxGeometry>
        </mxCell>
        <mxCell id="v_NeFwBvMOkXejpZJr8L-39" value="" style="edgeStyle=orthogonalEdgeStyle;rounded=0;orthogonalLoop=1;jettySize=auto;html=1;exitX=1;exitY=0.5;exitDx=0;exitDy=0;endArrow=none;endFill=0;dashed=1;" edge="1" parent="1" target="v_NeFwBvMOkXejpZJr8L-40">
          <mxGeometry relative="1" as="geometry">
            <mxPoint x="775" y="695" as="targetPoint" />
            <mxPoint x="775" y="525" as="sourcePoint" />
          </mxGeometry>
        </mxCell>
        <mxCell id="v_NeFwBvMOkXejpZJr8L-40" value="" style="rounded=0;whiteSpace=wrap;html=1;direction=south;" vertex="1" parent="1">
          <mxGeometry x="770" y="625" width="10" height="120" as="geometry" />
        </mxCell>
        <mxCell id="v_NeFwBvMOkXejpZJr8L-41" value="" style="edgeStyle=orthogonalEdgeStyle;rounded=0;orthogonalLoop=1;jettySize=auto;html=1;exitX=1;exitY=0.5;exitDx=0;exitDy=0;endArrow=none;endFill=0;dashed=1;" edge="1" parent="1" target="v_NeFwBvMOkXejpZJr8L-44">
          <mxGeometry relative="1" as="geometry">
            <mxPoint x="954.71" y="795" as="targetPoint" />
            <mxPoint x="954.71" y="665" as="sourcePoint" />
          </mxGeometry>
        </mxCell>
        <mxCell id="v_NeFwBvMOkXejpZJr8L-42" style="edgeStyle=orthogonalEdgeStyle;rounded=0;orthogonalLoop=1;jettySize=auto;html=1;exitX=0.25;exitY=0;exitDx=0;exitDy=0;entryX=0.25;entryY=1;entryDx=0;entryDy=0;endArrow=open;endFill=0;" edge="1" parent="1" source="v_NeFwBvMOkXejpZJr8L-44" target="v_NeFwBvMOkXejpZJr8L-55">
          <mxGeometry relative="1" as="geometry">
            <Array as="points">
              <mxPoint x="960" y="648" />
            </Array>
          </mxGeometry>
        </mxCell>
        <mxCell id="v_NeFwBvMOkXejpZJr8L-43" value="Atualiza dados" style="edgeLabel;html=1;align=center;verticalAlign=middle;resizable=0;points=[];" connectable="0" vertex="1" parent="v_NeFwBvMOkXejpZJr8L-42">
          <mxGeometry x="-0.5882" y="1" relative="1" as="geometry">
            <mxPoint x="45" y="1" as="offset" />
          </mxGeometry>
        </mxCell>
        <mxCell id="v_NeFwBvMOkXejpZJr8L-44" value="" style="rounded=0;whiteSpace=wrap;html=1;direction=south;" vertex="1" parent="1">
          <mxGeometry x="950" y="625" width="10" height="120" as="geometry" />
        </mxCell>
        <mxCell id="v_NeFwBvMOkXejpZJr8L-45" value="" style="edgeStyle=orthogonalEdgeStyle;rounded=0;orthogonalLoop=1;jettySize=auto;html=1;exitX=0.5;exitY=1;exitDx=0;exitDy=0;endArrow=none;endFill=0;dashed=1;" edge="1" parent="1" source="v_NeFwBvMOkXejpZJr8L-14" target="v_NeFwBvMOkXejpZJr8L-55">
          <mxGeometry relative="1" as="geometry">
            <mxPoint x="1135" y="565" as="targetPoint" />
            <mxPoint x="1135" y="190" as="sourcePoint" />
          </mxGeometry>
        </mxCell>
        <mxCell id="v_NeFwBvMOkXejpZJr8L-47" style="edgeStyle=orthogonalEdgeStyle;rounded=0;orthogonalLoop=1;jettySize=auto;html=1;entryX=0.5;entryY=0;entryDx=0;entryDy=0;dashed=1;endArrow=open;endFill=0;" edge="1" parent="1">
          <mxGeometry relative="1" as="geometry">
            <mxPoint x="1130" y="710" as="sourcePoint" />
            <mxPoint x="960" y="710" as="targetPoint" />
          </mxGeometry>
        </mxCell>
        <mxCell id="v_NeFwBvMOkXejpZJr8L-48" value="Dados OK" style="edgeLabel;html=1;align=center;verticalAlign=middle;resizable=0;points=[];" connectable="0" vertex="1" parent="v_NeFwBvMOkXejpZJr8L-47">
          <mxGeometry x="0.3506" y="-1" relative="1" as="geometry">
            <mxPoint x="25" as="offset" />
          </mxGeometry>
        </mxCell>
        <mxCell id="v_NeFwBvMOkXejpZJr8L-49" value="" style="edgeStyle=orthogonalEdgeStyle;rounded=0;orthogonalLoop=1;jettySize=auto;html=1;endArrow=none;endFill=0;dashed=1;exitX=1;exitY=0.5;exitDx=0;exitDy=0;" edge="1" parent="1" source="v_NeFwBvMOkXejpZJr8L-40">
          <mxGeometry relative="1" as="geometry">
            <mxPoint x="775" y="780" as="targetPoint" />
            <mxPoint x="820" y="775" as="sourcePoint" />
          </mxGeometry>
        </mxCell>
        <mxCell id="v_NeFwBvMOkXejpZJr8L-51" value="" style="edgeStyle=orthogonalEdgeStyle;rounded=0;orthogonalLoop=1;jettySize=auto;html=1;endArrow=none;endFill=0;dashed=1;exitX=1;exitY=0.5;exitDx=0;exitDy=0;" edge="1" parent="1" source="v_NeFwBvMOkXejpZJr8L-44">
          <mxGeometry relative="1" as="geometry">
            <mxPoint x="955" y="780" as="targetPoint" />
            <mxPoint x="955" y="735" as="sourcePoint" />
          </mxGeometry>
        </mxCell>
        <mxCell id="v_NeFwBvMOkXejpZJr8L-53" value="" style="edgeStyle=orthogonalEdgeStyle;rounded=0;orthogonalLoop=1;jettySize=auto;html=1;exitX=1;exitY=0.5;exitDx=0;exitDy=0;endArrow=none;endFill=0;dashed=1;" edge="1" parent="1">
          <mxGeometry relative="1" as="geometry">
            <mxPoint x="1135" y="780" as="targetPoint" />
            <mxPoint x="1134.71" y="665" as="sourcePoint" />
          </mxGeometry>
        </mxCell>
        <mxCell id="v_NeFwBvMOkXejpZJr8L-55" value="" style="rounded=0;whiteSpace=wrap;html=1;direction=south;" vertex="1" parent="1">
          <mxGeometry x="1130" y="625" width="10" height="90" as="geometry" />
        </mxCell>
        <mxCell id="v_NeFwBvMOkXejpZJr8L-61" value="" style="endArrow=none;dashed=1;html=1;rounded=0;exitX=0.004;exitY=0.69;exitDx=0;exitDy=0;exitPerimeter=0;entryX=0.997;entryY=0.698;entryDx=0;entryDy=0;entryPerimeter=0;" edge="1" parent="1" source="v_NeFwBvMOkXejpZJr8L-63" target="v_NeFwBvMOkXejpZJr8L-63">
          <mxGeometry width="50" height="50" relative="1" as="geometry">
            <mxPoint x="1030" y="385" as="sourcePoint" />
            <mxPoint x="1080" y="335" as="targetPoint" />
          </mxGeometry>
        </mxCell>
        <mxCell id="v_NeFwBvMOkXejpZJr8L-62" value="" style="rounded=0;whiteSpace=wrap;html=1;direction=south;" vertex="1" parent="1">
          <mxGeometry x="1130" y="225" width="10" height="130" as="geometry" />
        </mxCell>
        <mxCell id="v_NeFwBvMOkXejpZJr8L-63" value="Alt&lt;div&gt;&lt;br&gt;&lt;/div&gt;" style="shape=umlFrame;whiteSpace=wrap;html=1;pointerEvents=0;" vertex="1" parent="1">
          <mxGeometry x="880" y="215" width="320" height="150" as="geometry" />
        </mxCell>
        <mxCell id="v_NeFwBvMOkXejpZJr8L-64" value="" style="rounded=0;whiteSpace=wrap;html=1;direction=south;" vertex="1" parent="1">
          <mxGeometry x="950" y="225" width="10" height="160" as="geometry" />
        </mxCell>
        <mxCell id="v_NeFwBvMOkXejpZJr8L-65" value="" style="endArrow=open;html=1;rounded=0;exitX=0.099;exitY=-0.04;exitDx=0;exitDy=0;exitPerimeter=0;endFill=0;entryX=0.111;entryY=1.3;entryDx=0;entryDy=0;entryPerimeter=0;" edge="1" parent="1" target="v_NeFwBvMOkXejpZJr8L-44">
          <mxGeometry width="50" height="50" relative="1" as="geometry">
            <mxPoint x="780" y="635" as="sourcePoint" />
            <mxPoint x="949.6" y="635.15" as="targetPoint" />
          </mxGeometry>
        </mxCell>
        <mxCell id="v_NeFwBvMOkXejpZJr8L-66" value="Atualiza resposta do chamado" style="edgeLabel;html=1;align=center;verticalAlign=middle;resizable=0;points=[];" connectable="0" vertex="1" parent="v_NeFwBvMOkXejpZJr8L-65">
          <mxGeometry x="-0.8042" relative="1" as="geometry">
            <mxPoint x="63" as="offset" />
          </mxGeometry>
        </mxCell>
        <mxCell id="v_NeFwBvMOkXejpZJr8L-67" style="edgeStyle=orthogonalEdgeStyle;rounded=0;orthogonalLoop=1;jettySize=auto;html=1;entryX=0.5;entryY=0;entryDx=0;entryDy=0;dashed=1;endArrow=open;endFill=0;" edge="1" parent="1">
          <mxGeometry relative="1" as="geometry">
            <mxPoint x="950" y="735" as="sourcePoint" />
            <mxPoint x="780" y="735" as="targetPoint" />
          </mxGeometry>
        </mxCell>
        <mxCell id="v_NeFwBvMOkXejpZJr8L-68" value="&lt;font style=&quot;font-size: 10px;&quot;&gt;Recebe confirmaÃ§Ã£o e status do&amp;nbsp;&lt;/font&gt;&lt;div style=&quot;font-size: 10px;&quot;&gt;&lt;font style=&quot;font-size: 10px;&quot;&gt;chamado troca para fechado&lt;/font&gt;&lt;/div&gt;" style="edgeLabel;html=1;align=center;verticalAlign=middle;resizable=0;points=[];" connectable="0" vertex="1" parent="v_NeFwBvMOkXejpZJr8L-67">
          <mxGeometry x="0.3506" y="-1" relative="1" as="geometry">
            <mxPoint x="35" as="offset" />
          </mxGeometry>
        </mxCell>
        <mxCell id="v_NeFwBvMOkXejpZJr8L-91" value="Alt&lt;div&gt;&lt;br&gt;&lt;/div&gt;" style="shape=umlFrame;whiteSpace=wrap;html=1;pointerEvents=0;" vertex="1" parent="1">
          <mxGeometry x="870" y="410" width="320" height="125" as="geometry" />
        </mxCell>
        <mxCell id="v_NeFwBvMOkXejpZJr8L-92" style="edgeStyle=orthogonalEdgeStyle;rounded=0;orthogonalLoop=1;jettySize=auto;html=1;exitX=0.5;exitY=1;exitDx=0;exitDy=0;endArrow=none;endFill=0;dashed=1;" edge="1" parent="1" source="v_NeFwBvMOkXejpZJr8L-100">
          <mxGeometry relative="1" as="geometry">
            <mxPoint x="1135" y="485" as="targetPoint" />
          </mxGeometry>
        </mxCell>
        <mxCell id="v_NeFwBvMOkXejpZJr8L-93" value="" style="rounded=0;whiteSpace=wrap;html=1;direction=south;" vertex="1" parent="1">
          <mxGeometry x="770" y="445" width="10" height="120" as="geometry" />
        </mxCell>
        <mxCell id="v_NeFwBvMOkXejpZJr8L-94" value="" style="edgeStyle=orthogonalEdgeStyle;rounded=0;orthogonalLoop=1;jettySize=auto;html=1;exitX=1;exitY=0.5;exitDx=0;exitDy=0;endArrow=none;endFill=0;dashed=1;" edge="1" parent="1" target="v_NeFwBvMOkXejpZJr8L-97">
          <mxGeometry relative="1" as="geometry">
            <mxPoint x="954.71" y="615" as="targetPoint" />
            <mxPoint x="954.71" y="485" as="sourcePoint" />
          </mxGeometry>
        </mxCell>
        <mxCell id="v_NeFwBvMOkXejpZJr8L-95" style="edgeStyle=orthogonalEdgeStyle;rounded=0;orthogonalLoop=1;jettySize=auto;html=1;exitX=0.25;exitY=0;exitDx=0;exitDy=0;entryX=0.25;entryY=1;entryDx=0;entryDy=0;endArrow=open;endFill=0;" edge="1" parent="1" source="v_NeFwBvMOkXejpZJr8L-97" target="v_NeFwBvMOkXejpZJr8L-100">
          <mxGeometry relative="1" as="geometry">
            <Array as="points">
              <mxPoint x="960" y="468" />
            </Array>
          </mxGeometry>
        </mxCell>
        <mxCell id="v_NeFwBvMOkXejpZJr8L-96" value="Procura Chamados" style="edgeLabel;html=1;align=center;verticalAlign=middle;resizable=0;points=[];" connectable="0" vertex="1" parent="v_NeFwBvMOkXejpZJr8L-95">
          <mxGeometry x="-0.5882" y="1" relative="1" as="geometry">
            <mxPoint x="45" y="1" as="offset" />
          </mxGeometry>
        </mxCell>
        <mxCell id="v_NeFwBvMOkXejpZJr8L-97" value="" style="rounded=0;whiteSpace=wrap;html=1;direction=south;" vertex="1" parent="1">
          <mxGeometry x="950" y="445" width="10" height="120" as="geometry" />
        </mxCell>
        <mxCell id="v_NeFwBvMOkXejpZJr8L-98" style="edgeStyle=orthogonalEdgeStyle;rounded=0;orthogonalLoop=1;jettySize=auto;html=1;entryX=0.5;entryY=0;entryDx=0;entryDy=0;dashed=1;endArrow=open;endFill=0;" edge="1" parent="1">
          <mxGeometry relative="1" as="geometry">
            <mxPoint x="1130" y="489.5" as="sourcePoint" />
            <mxPoint x="960" y="489.5" as="targetPoint" />
          </mxGeometry>
        </mxCell>
        <mxCell id="v_NeFwBvMOkXejpZJr8L-99" value="Dados OK" style="edgeLabel;html=1;align=center;verticalAlign=middle;resizable=0;points=[];" connectable="0" vertex="1" parent="v_NeFwBvMOkXejpZJr8L-98">
          <mxGeometry x="0.3506" y="-1" relative="1" as="geometry">
            <mxPoint x="25" as="offset" />
          </mxGeometry>
        </mxCell>
        <mxCell id="v_NeFwBvMOkXejpZJr8L-100" value="" style="rounded=0;whiteSpace=wrap;html=1;direction=south;" vertex="1" parent="1">
          <mxGeometry x="1130" y="445" width="10" height="90" as="geometry" />
        </mxCell>
        <mxCell id="v_NeFwBvMOkXejpZJr8L-101" value="" style="endArrow=open;html=1;rounded=0;exitX=0.099;exitY=-0.04;exitDx=0;exitDy=0;exitPerimeter=0;endFill=0;entryX=0.111;entryY=1.3;entryDx=0;entryDy=0;entryPerimeter=0;" edge="1" parent="1" target="v_NeFwBvMOkXejpZJr8L-97">
          <mxGeometry width="50" height="50" relative="1" as="geometry">
            <mxPoint x="780" y="455" as="sourcePoint" />
            <mxPoint x="949.6" y="455.15" as="targetPoint" />
          </mxGeometry>
        </mxCell>
        <mxCell id="v_NeFwBvMOkXejpZJr8L-102" value="Verificar Se Tem Chamados" style="edgeLabel;html=1;align=center;verticalAlign=middle;resizable=0;points=[];" connectable="0" vertex="1" parent="v_NeFwBvMOkXejpZJr8L-101">
          <mxGeometry x="-0.8042" relative="1" as="geometry">
            <mxPoint x="63" as="offset" />
          </mxGeometry>
        </mxCell>
        <mxCell id="v_NeFwBvMOkXejpZJr8L-103" style="edgeStyle=orthogonalEdgeStyle;rounded=0;orthogonalLoop=1;jettySize=auto;html=1;entryX=0.5;entryY=0;entryDx=0;entryDy=0;dashed=1;endArrow=open;endFill=0;" edge="1" parent="1">
          <mxGeometry relative="1" as="geometry">
            <mxPoint x="950" y="555" as="sourcePoint" />
            <mxPoint x="780" y="555" as="targetPoint" />
          </mxGeometry>
        </mxCell>
        <mxCell id="v_NeFwBvMOkXejpZJr8L-104" value="Recebe resposta" style="edgeLabel;html=1;align=center;verticalAlign=middle;resizable=0;points=[];" connectable="0" vertex="1" parent="v_NeFwBvMOkXejpZJr8L-103">
          <mxGeometry x="0.3506" y="-1" relative="1" as="geometry">
            <mxPoint x="25" as="offset" />
          </mxGeometry>
        </mxCell>
        <mxCell id="v_NeFwBvMOkXejpZJr8L-105" style="edgeStyle=orthogonalEdgeStyle;rounded=0;orthogonalLoop=1;jettySize=auto;html=1;entryX=0.5;entryY=0;entryDx=0;entryDy=0;dashed=1;endArrow=open;endFill=0;" edge="1" parent="1">
          <mxGeometry relative="1" as="geometry">
            <mxPoint x="1130" y="515" as="sourcePoint" />
            <mxPoint x="960" y="515" as="targetPoint" />
          </mxGeometry>
        </mxCell>
        <mxCell id="v_NeFwBvMOkXejpZJr8L-106" value="Dados NOK" style="edgeLabel;html=1;align=center;verticalAlign=middle;resizable=0;points=[];" connectable="0" vertex="1" parent="v_NeFwBvMOkXejpZJr8L-105">
          <mxGeometry x="0.3506" y="-1" relative="1" as="geometry">
            <mxPoint x="25" as="offset" />
          </mxGeometry>
        </mxCell>
        <mxCell id="v_NeFwBvMOkXejpZJr8L-107" value="" style="endArrow=none;dashed=1;html=1;rounded=0;exitX=0.004;exitY=0.69;exitDx=0;exitDy=0;exitPerimeter=0;entryX=0.997;entryY=0.698;entryDx=0;entryDy=0;entryPerimeter=0;" edge="1" parent="1">
          <mxGeometry width="50" height="50" relative="1" as="geometry">
            <mxPoint x="871" y="505" as="sourcePoint" />
            <mxPoint x="1189" y="506" as="targetPoint" />
          </mxGeometry>
        </mxCell>
        <mxCell id="v_NeFwBvMOkXejpZJr8L-111" value="Funcionario" style="text;html=1;align=center;verticalAlign=middle;resizable=0;points=[];autosize=1;strokeColor=none;fillColor=none;" vertex="1" parent="1">
          <mxGeometry x="940" y="58" width="90" height="30" as="geometry" />
        </mxCell>
        <mxCell id="v_NeFwBvMOkXejpZJr8L-112" value="Cliente" style="text;html=1;align=center;verticalAlign=middle;resizable=0;points=[];autosize=1;strokeColor=none;fillColor=none;" vertex="1" parent="1">
          <mxGeometry x="400" y="58" width="60" height="30" as="geometry" />
        </mxCell>
      </root>
    </mxGraphModel>
  </diagram>
</mxfile>
